<mxfile host="app.diagrams.net" modified="2021-02-07T16:01:25.906Z" agent="5.0 (Windows NT 10.0; Win64; x64) AppleWebKit/537.36 (KHTML, like Gecko) Chrome/88.0.4324.150 Safari/537.36" etag="BwV9JcEXMnxtNe_7pN1m" version="14.2.9" type="github" pages="2">
  <diagram id="R2lEEEUBdFMjLlhIrx00" name="Page-1">
    <mxGraphModel dx="1160" dy="762" grid="1" gridSize="10" guides="1" tooltips="1" connect="1" arrows="1" fold="1" page="0" pageScale="1" pageWidth="850" pageHeight="1100" math="0" shadow="0" extFonts="Permanent Marker^https://fonts.googleapis.com/css?family=Permanent+Marker">
      <root>
        <mxCell id="0" />
        <mxCell id="1" parent="0" />
        <mxCell id="9pXO89ILQIidU-_fUXLy-3" value="&lt;font style=&quot;font-size: 20px&quot;&gt;Product&lt;/font&gt;" style="rounded=1;whiteSpace=wrap;html=1;" parent="1" vertex="1">
          <mxGeometry x="380" y="100" width="120" height="60" as="geometry" />
        </mxCell>
        <mxCell id="9pXO89ILQIidU-_fUXLy-4" value="&lt;font style=&quot;font-size: 18px&quot;&gt;Donut&lt;/font&gt;" style="rounded=1;whiteSpace=wrap;html=1;" parent="1" vertex="1">
          <mxGeometry x="100" y="370" width="120" height="60" as="geometry" />
        </mxCell>
        <mxCell id="9pXO89ILQIidU-_fUXLy-5" value="&lt;font style=&quot;font-size: 18px&quot;&gt;Sandwiches&lt;/font&gt;" style="rounded=1;whiteSpace=wrap;html=1;" parent="1" vertex="1">
          <mxGeometry x="270" y="370" width="120" height="60" as="geometry" />
        </mxCell>
        <mxCell id="9pXO89ILQIidU-_fUXLy-8" value="&lt;font style=&quot;font-size: 18px&quot;&gt;Food&lt;/font&gt;" style="rounded=1;whiteSpace=wrap;html=1;" parent="1" vertex="1">
          <mxGeometry x="190" y="250" width="120" height="60" as="geometry" />
        </mxCell>
        <mxCell id="9pXO89ILQIidU-_fUXLy-9" value="&lt;font style=&quot;font-size: 18px&quot;&gt;Beverage&lt;/font&gt;" style="rounded=1;whiteSpace=wrap;html=1;" parent="1" vertex="1">
          <mxGeometry x="570" y="250" width="120" height="60" as="geometry" />
        </mxCell>
        <mxCell id="9pXO89ILQIidU-_fUXLy-10" value="&lt;font style=&quot;font-size: 18px&quot;&gt;Non-Coffee&lt;/font&gt;" style="rounded=1;whiteSpace=wrap;html=1;" parent="1" vertex="1">
          <mxGeometry x="660" y="370" width="120" height="60" as="geometry" />
        </mxCell>
        <mxCell id="9pXO89ILQIidU-_fUXLy-11" value="&lt;font style=&quot;font-size: 18px&quot;&gt;Coffee&lt;/font&gt;" style="rounded=1;whiteSpace=wrap;html=1;" parent="1" vertex="1">
          <mxGeometry x="465" y="370" width="120" height="60" as="geometry" />
        </mxCell>
        <mxCell id="9pXO89ILQIidU-_fUXLy-14" value="" style="endArrow=none;html=1;entryX=0.5;entryY=0;entryDx=0;entryDy=0;" parent="1" target="9pXO89ILQIidU-_fUXLy-9" edge="1">
          <mxGeometry width="50" height="50" relative="1" as="geometry">
            <mxPoint x="250" y="250" as="sourcePoint" />
            <mxPoint x="300" y="200" as="targetPoint" />
            <Array as="points">
              <mxPoint x="250" y="210" />
              <mxPoint x="440" y="210" />
              <mxPoint x="630" y="210" />
            </Array>
          </mxGeometry>
        </mxCell>
        <mxCell id="9pXO89ILQIidU-_fUXLy-16" value="" style="endArrow=classic;html=1;entryX=0.5;entryY=1;entryDx=0;entryDy=0;" parent="1" target="9pXO89ILQIidU-_fUXLy-3" edge="1">
          <mxGeometry width="50" height="50" relative="1" as="geometry">
            <mxPoint x="440" y="210" as="sourcePoint" />
            <mxPoint x="490" y="160" as="targetPoint" />
          </mxGeometry>
        </mxCell>
        <mxCell id="9pXO89ILQIidU-_fUXLy-17" value="" style="endArrow=none;html=1;" parent="1" edge="1">
          <mxGeometry width="50" height="50" relative="1" as="geometry">
            <mxPoint x="160" y="370" as="sourcePoint" />
            <mxPoint x="330" y="369" as="targetPoint" />
            <Array as="points">
              <mxPoint x="160" y="340" />
              <mxPoint x="330" y="340" />
            </Array>
          </mxGeometry>
        </mxCell>
        <mxCell id="9pXO89ILQIidU-_fUXLy-20" value="" style="endArrow=classic;html=1;entryX=0.5;entryY=1;entryDx=0;entryDy=0;" parent="1" target="9pXO89ILQIidU-_fUXLy-8" edge="1">
          <mxGeometry width="50" height="50" relative="1" as="geometry">
            <mxPoint x="250" y="340" as="sourcePoint" />
            <mxPoint x="290" y="290" as="targetPoint" />
          </mxGeometry>
        </mxCell>
        <mxCell id="9pXO89ILQIidU-_fUXLy-21" value="" style="endArrow=classic;html=1;entryX=0.5;entryY=1;entryDx=0;entryDy=0;" parent="1" edge="1">
          <mxGeometry width="50" height="50" relative="1" as="geometry">
            <mxPoint x="629.5" y="340" as="sourcePoint" />
            <mxPoint x="629.5" y="310" as="targetPoint" />
          </mxGeometry>
        </mxCell>
        <mxCell id="9pXO89ILQIidU-_fUXLy-22" value="" style="endArrow=none;html=1;" parent="1" edge="1">
          <mxGeometry width="50" height="50" relative="1" as="geometry">
            <mxPoint x="540" y="370" as="sourcePoint" />
            <mxPoint x="710" y="369" as="targetPoint" />
            <Array as="points">
              <mxPoint x="540" y="340" />
              <mxPoint x="710" y="340" />
            </Array>
          </mxGeometry>
        </mxCell>
        <mxCell id="9pXO89ILQIidU-_fUXLy-44" style="edgeStyle=orthogonalEdgeStyle;rounded=0;orthogonalLoop=1;jettySize=auto;html=1;exitX=0.5;exitY=0;exitDx=0;exitDy=0;entryX=0.75;entryY=1;entryDx=0;entryDy=0;" parent="1" source="9pXO89ILQIidU-_fUXLy-23" target="9pXO89ILQIidU-_fUXLy-10" edge="1">
          <mxGeometry relative="1" as="geometry" />
        </mxCell>
        <mxCell id="9pXO89ILQIidU-_fUXLy-23" value="Smoothie" style="rounded=1;whiteSpace=wrap;html=1;" parent="1" vertex="1">
          <mxGeometry x="710" y="520" width="80" height="40" as="geometry" />
        </mxCell>
        <mxCell id="9pXO89ILQIidU-_fUXLy-46" style="edgeStyle=orthogonalEdgeStyle;rounded=0;orthogonalLoop=1;jettySize=auto;html=1;exitX=0.5;exitY=0;exitDx=0;exitDy=0;entryX=0.75;entryY=1;entryDx=0;entryDy=0;" parent="1" source="9pXO89ILQIidU-_fUXLy-25" target="9pXO89ILQIidU-_fUXLy-10" edge="1">
          <mxGeometry relative="1" as="geometry">
            <Array as="points">
              <mxPoint x="930" y="490" />
              <mxPoint x="750" y="490" />
            </Array>
          </mxGeometry>
        </mxCell>
        <mxCell id="9pXO89ILQIidU-_fUXLy-25" value="Ade" style="rounded=1;whiteSpace=wrap;html=1;" parent="1" vertex="1">
          <mxGeometry x="890" y="520" width="80" height="40" as="geometry" />
        </mxCell>
        <mxCell id="9pXO89ILQIidU-_fUXLy-45" style="edgeStyle=orthogonalEdgeStyle;rounded=0;orthogonalLoop=1;jettySize=auto;html=1;exitX=0.5;exitY=0;exitDx=0;exitDy=0;entryX=0.75;entryY=1;entryDx=0;entryDy=0;" parent="1" source="9pXO89ILQIidU-_fUXLy-26" target="9pXO89ILQIidU-_fUXLy-10" edge="1">
          <mxGeometry relative="1" as="geometry">
            <Array as="points">
              <mxPoint x="840" y="490" />
              <mxPoint x="750" y="490" />
            </Array>
          </mxGeometry>
        </mxCell>
        <mxCell id="9pXO89ILQIidU-_fUXLy-26" value="Bubble" style="rounded=1;whiteSpace=wrap;html=1;" parent="1" vertex="1">
          <mxGeometry x="800" y="520" width="80" height="40" as="geometry" />
        </mxCell>
        <mxCell id="9pXO89ILQIidU-_fUXLy-27" value="Tea" style="rounded=1;whiteSpace=wrap;html=1;" parent="1" vertex="1">
          <mxGeometry x="990" y="520" width="80" height="40" as="geometry" />
        </mxCell>
        <mxCell id="9pXO89ILQIidU-_fUXLy-33" value="" style="endArrow=none;html=1;entryX=0.5;entryY=0;entryDx=0;entryDy=0;" parent="1" target="9pXO89ILQIidU-_fUXLy-27" edge="1">
          <mxGeometry width="50" height="50" relative="1" as="geometry">
            <mxPoint x="840" y="490" as="sourcePoint" />
            <mxPoint x="1110" y="490" as="targetPoint" />
            <Array as="points">
              <mxPoint x="960" y="490" />
              <mxPoint x="1040" y="490" />
              <mxPoint x="1030" y="490" />
            </Array>
          </mxGeometry>
        </mxCell>
        <mxCell id="9pXO89ILQIidU-_fUXLy-36" style="edgeStyle=orthogonalEdgeStyle;rounded=0;orthogonalLoop=1;jettySize=auto;html=1;exitX=0.5;exitY=0;exitDx=0;exitDy=0;entryX=0.5;entryY=1;entryDx=0;entryDy=0;" parent="1" source="9pXO89ILQIidU-_fUXLy-37" edge="1">
          <mxGeometry relative="1" as="geometry">
            <mxPoint x="545" y="430" as="targetPoint" />
          </mxGeometry>
        </mxCell>
        <mxCell id="9pXO89ILQIidU-_fUXLy-37" value="Central Park" style="rounded=1;whiteSpace=wrap;html=1;" parent="1" vertex="1">
          <mxGeometry x="440" y="520" width="80" height="40" as="geometry" />
        </mxCell>
        <mxCell id="9pXO89ILQIidU-_fUXLy-38" style="edgeStyle=orthogonalEdgeStyle;rounded=0;orthogonalLoop=1;jettySize=auto;html=1;exitX=0.5;exitY=0;exitDx=0;exitDy=0;entryX=0.5;entryY=1;entryDx=0;entryDy=0;" parent="1" source="9pXO89ILQIidU-_fUXLy-39" edge="1">
          <mxGeometry relative="1" as="geometry">
            <mxPoint x="545" y="430" as="targetPoint" />
          </mxGeometry>
        </mxCell>
        <mxCell id="9pXO89ILQIidU-_fUXLy-39" value="Brewed Coffee" style="rounded=1;whiteSpace=wrap;html=1;" parent="1" vertex="1">
          <mxGeometry x="620" y="520" width="80" height="40" as="geometry" />
        </mxCell>
        <mxCell id="9pXO89ILQIidU-_fUXLy-47" style="edgeStyle=orthogonalEdgeStyle;rounded=0;orthogonalLoop=1;jettySize=auto;html=1;exitX=0.5;exitY=0;exitDx=0;exitDy=0;entryX=0.5;entryY=1;entryDx=0;entryDy=0;" parent="1" source="9pXO89ILQIidU-_fUXLy-41" edge="1">
          <mxGeometry relative="1" as="geometry">
            <mxPoint x="545" y="430" as="targetPoint" />
          </mxGeometry>
        </mxCell>
        <mxCell id="9pXO89ILQIidU-_fUXLy-41" value="Dunkin Espresso" style="rounded=1;whiteSpace=wrap;html=1;" parent="1" vertex="1">
          <mxGeometry x="530" y="520" width="80" height="40" as="geometry" />
        </mxCell>
        <mxCell id="9pXO89ILQIidU-_fUXLy-52" style="edgeStyle=orthogonalEdgeStyle;rounded=0;orthogonalLoop=1;jettySize=auto;html=1;exitX=0.5;exitY=0;exitDx=0;exitDy=0;entryX=0.5;entryY=1;entryDx=0;entryDy=0;" parent="1" source="9pXO89ILQIidU-_fUXLy-49" target="9pXO89ILQIidU-_fUXLy-5" edge="1">
          <mxGeometry relative="1" as="geometry" />
        </mxCell>
        <mxCell id="9pXO89ILQIidU-_fUXLy-49" value="Hot Sandwiches" style="rounded=1;whiteSpace=wrap;html=1;" parent="1" vertex="1">
          <mxGeometry x="250" y="520" width="80" height="40" as="geometry" />
        </mxCell>
        <mxCell id="9pXO89ILQIidU-_fUXLy-53" style="edgeStyle=orthogonalEdgeStyle;rounded=0;orthogonalLoop=1;jettySize=auto;html=1;exitX=0.5;exitY=0;exitDx=0;exitDy=0;" parent="1" source="9pXO89ILQIidU-_fUXLy-51" edge="1">
          <mxGeometry relative="1" as="geometry">
            <mxPoint x="330" y="430" as="targetPoint" />
          </mxGeometry>
        </mxCell>
        <mxCell id="9pXO89ILQIidU-_fUXLy-51" value="At Home" style="rounded=1;whiteSpace=wrap;html=1;" parent="1" vertex="1">
          <mxGeometry x="340" y="520" width="80" height="40" as="geometry" />
        </mxCell>
        <mxCell id="9pXO89ILQIidU-_fUXLy-54" style="edgeStyle=orthogonalEdgeStyle;rounded=0;orthogonalLoop=1;jettySize=auto;html=1;exitX=0.5;exitY=0;exitDx=0;exitDy=0;entryX=0.5;entryY=1;entryDx=0;entryDy=0;" parent="1" source="9pXO89ILQIidU-_fUXLy-55" edge="1">
          <mxGeometry relative="1" as="geometry">
            <mxPoint x="150" y="430" as="targetPoint" />
          </mxGeometry>
        </mxCell>
        <mxCell id="9pXO89ILQIidU-_fUXLy-55" value="Basic" style="rounded=1;whiteSpace=wrap;html=1;" parent="1" vertex="1">
          <mxGeometry x="70" y="520" width="80" height="40" as="geometry" />
        </mxCell>
        <mxCell id="9pXO89ILQIidU-_fUXLy-56" style="edgeStyle=orthogonalEdgeStyle;rounded=0;orthogonalLoop=1;jettySize=auto;html=1;exitX=0.5;exitY=0;exitDx=0;exitDy=0;" parent="1" source="9pXO89ILQIidU-_fUXLy-57" edge="1">
          <mxGeometry relative="1" as="geometry">
            <mxPoint x="150" y="430" as="targetPoint" />
          </mxGeometry>
        </mxCell>
        <mxCell id="9pXO89ILQIidU-_fUXLy-57" value="Bagels" style="rounded=1;whiteSpace=wrap;html=1;" parent="1" vertex="1">
          <mxGeometry x="160" y="520" width="80" height="40" as="geometry" />
        </mxCell>
      </root>
    </mxGraphModel>
  </diagram>
  <diagram id="Pc-RiQ-_jlDAVyWibfXL" name="Page-2">
    <mxGraphModel dx="2360" dy="1962" grid="1" gridSize="10" guides="1" tooltips="1" connect="1" arrows="1" fold="1" page="0" pageScale="1" pageWidth="827" pageHeight="1169" math="0" shadow="0">
      <root>
        <mxCell id="GZF2rD_12EcgC1dJMO31-0" />
        <mxCell id="GZF2rD_12EcgC1dJMO31-1" parent="GZF2rD_12EcgC1dJMO31-0" />
        <mxCell id="GZF2rD_12EcgC1dJMO31-3" value="&lt;table border=&quot;1&quot; width=&quot;100%&quot; cellpadding=&quot;4&quot; style=&quot;width: 100% ; height: 100% ; border-collapse: collapse ; font-size: 15px&quot;&gt;&lt;tbody&gt;&lt;tr&gt;&lt;th align=&quot;center&quot;&gt;&lt;font style=&quot;font-size: 15px&quot;&gt;Product&lt;/font&gt;&lt;/th&gt;&lt;/tr&gt;&lt;tr&gt;&lt;td align=&quot;center&quot;&gt;&lt;font style=&quot;font-size: 15px&quot;&gt;name: String&lt;br&gt;main ingredient: String&lt;br&gt;picture: Image&lt;br&gt;allergic: String&lt;br&gt;price: int&lt;/font&gt;&lt;/td&gt;&lt;/tr&gt;&lt;tr&gt;&lt;td align=&quot;center&quot;&gt;&lt;font style=&quot;font-size: 15px&quot;&gt;purchase()&lt;br&gt;addpoint()&lt;/font&gt;&lt;/td&gt;&lt;/tr&gt;&lt;/tbody&gt;&lt;/table&gt;" style="text;html=1;strokeColor=none;fillColor=none;overflow=fill;strokeWidth=4;" parent="GZF2rD_12EcgC1dJMO31-1" vertex="1">
          <mxGeometry x="-540" y="-790" width="170" height="190" as="geometry" />
        </mxCell>
        <mxCell id="GZF2rD_12EcgC1dJMO31-4" value="&lt;table border=&quot;1&quot; width=&quot;100%&quot; cellpadding=&quot;4&quot; style=&quot;width: 100% ; height: 100% ; border-collapse: collapse ; font-size: 15px&quot;&gt;&lt;tbody&gt;&lt;tr&gt;&lt;th align=&quot;center&quot;&gt;&lt;font style=&quot;font-size: 15px&quot;&gt;Food&lt;/font&gt;&lt;/th&gt;&lt;/tr&gt;&lt;tr&gt;&lt;td align=&quot;center&quot;&gt;&lt;font style=&quot;font-size: 15px&quot;&gt;&lt;br&gt;&lt;/font&gt;&lt;/td&gt;&lt;/tr&gt;&lt;tr&gt;&lt;td align=&quot;center&quot;&gt;&lt;font style=&quot;font-size: 15px&quot;&gt;&lt;br&gt;&lt;/font&gt;&lt;/td&gt;&lt;/tr&gt;&lt;/tbody&gt;&lt;/table&gt;" style="text;html=1;strokeColor=none;fillColor=none;overflow=fill;" parent="GZF2rD_12EcgC1dJMO31-1" vertex="1">
          <mxGeometry x="-770" y="-620" width="160" height="140" as="geometry" />
        </mxCell>
        <mxCell id="GZF2rD_12EcgC1dJMO31-5" value="&lt;table border=&quot;1&quot; width=&quot;100%&quot; cellpadding=&quot;4&quot; style=&quot;width: 100% ; height: 100% ; border-collapse: collapse ; font-size: 15px&quot;&gt;&lt;tbody&gt;&lt;tr&gt;&lt;th align=&quot;center&quot;&gt;&lt;font style=&quot;font-size: 15px&quot;&gt;Beverage&lt;/font&gt;&lt;/th&gt;&lt;/tr&gt;&lt;tr&gt;&lt;td align=&quot;center&quot;&gt;isIce: Boolean&lt;/td&gt;&lt;/tr&gt;&lt;tr&gt;&lt;td align=&quot;center&quot;&gt;&lt;font style=&quot;font-size: 15px&quot;&gt;&lt;br&gt;&lt;/font&gt;&lt;/td&gt;&lt;/tr&gt;&lt;/tbody&gt;&lt;/table&gt;" style="text;html=1;strokeColor=none;fillColor=none;overflow=fill;" parent="GZF2rD_12EcgC1dJMO31-1" vertex="1">
          <mxGeometry x="-310" y="-620" width="160" height="140" as="geometry" />
        </mxCell>
        <mxCell id="GZF2rD_12EcgC1dJMO31-7" value="&lt;table border=&quot;1&quot; width=&quot;100%&quot; cellpadding=&quot;4&quot; style=&quot;width: 100% ; height: 100% ; border-collapse: collapse ; font-size: 15px&quot;&gt;&lt;tbody&gt;&lt;tr&gt;&lt;th align=&quot;center&quot;&gt;&lt;font style=&quot;font-size: 15px&quot;&gt;Sandwiches&lt;/font&gt;&lt;/th&gt;&lt;/tr&gt;&lt;tr&gt;&lt;td align=&quot;center&quot;&gt;&lt;font style=&quot;font-size: 15px&quot;&gt;ishot: Boolean&lt;/font&gt;&lt;/td&gt;&lt;/tr&gt;&lt;tr&gt;&lt;td align=&quot;center&quot;&gt;&lt;font style=&quot;font-size: 15px&quot;&gt;&lt;br&gt;&lt;/font&gt;&lt;/td&gt;&lt;/tr&gt;&lt;/tbody&gt;&lt;/table&gt;" style="text;html=1;strokeColor=none;fillColor=none;overflow=fill;" parent="GZF2rD_12EcgC1dJMO31-1" vertex="1">
          <mxGeometry x="-680" y="-390" width="160" height="140" as="geometry" />
        </mxCell>
        <mxCell id="GZF2rD_12EcgC1dJMO31-8" value="&lt;table border=&quot;1&quot; width=&quot;100%&quot; cellpadding=&quot;4&quot; style=&quot;width: 100% ; height: 100% ; border-collapse: collapse ; font-size: 15px&quot;&gt;&lt;tbody&gt;&lt;tr&gt;&lt;th align=&quot;center&quot;&gt;&lt;font style=&quot;font-size: 15px&quot;&gt;Donut&lt;/font&gt;&lt;/th&gt;&lt;/tr&gt;&lt;tr&gt;&lt;td align=&quot;center&quot;&gt;&lt;font style=&quot;font-size: 15px&quot;&gt;&lt;br&gt;&lt;/font&gt;&lt;/td&gt;&lt;/tr&gt;&lt;tr&gt;&lt;td align=&quot;center&quot;&gt;&lt;font style=&quot;font-size: 15px&quot;&gt;&lt;br&gt;&lt;/font&gt;&lt;/td&gt;&lt;/tr&gt;&lt;/tbody&gt;&lt;/table&gt;" style="text;html=1;strokeColor=none;fillColor=none;overflow=fill;" parent="GZF2rD_12EcgC1dJMO31-1" vertex="1">
          <mxGeometry x="-870" y="-390" width="160" height="140" as="geometry" />
        </mxCell>
        <mxCell id="GZF2rD_12EcgC1dJMO31-9" value="&lt;table border=&quot;1&quot; width=&quot;100%&quot; cellpadding=&quot;4&quot; style=&quot;width: 100% ; height: 100% ; border-collapse: collapse ; font-size: 15px&quot;&gt;&lt;tbody&gt;&lt;tr&gt;&lt;th align=&quot;center&quot;&gt;&lt;font style=&quot;font-size: 15px&quot;&gt;Coffee&lt;/font&gt;&lt;/th&gt;&lt;/tr&gt;&lt;tr&gt;&lt;td align=&quot;center&quot;&gt;&lt;font style=&quot;font-size: 15px&quot;&gt;isdecaf: Boolean&lt;/font&gt;&lt;/td&gt;&lt;/tr&gt;&lt;tr&gt;&lt;td align=&quot;center&quot;&gt;&lt;font style=&quot;font-size: 15px&quot;&gt;&lt;br&gt;&lt;/font&gt;&lt;/td&gt;&lt;/tr&gt;&lt;/tbody&gt;&lt;/table&gt;" style="text;html=1;strokeColor=none;fillColor=none;overflow=fill;" parent="GZF2rD_12EcgC1dJMO31-1" vertex="1">
          <mxGeometry x="-400" y="-400" width="160" height="140" as="geometry" />
        </mxCell>
        <mxCell id="GZF2rD_12EcgC1dJMO31-10" value="&lt;table border=&quot;1&quot; width=&quot;100%&quot; cellpadding=&quot;4&quot; style=&quot;width: 100% ; height: 100% ; border-collapse: collapse ; font-size: 15px&quot;&gt;&lt;tbody&gt;&lt;tr&gt;&lt;th align=&quot;center&quot;&gt;&lt;font style=&quot;font-size: 15px&quot;&gt;Non-Coffee&lt;/font&gt;&lt;/th&gt;&lt;/tr&gt;&lt;tr&gt;&lt;td align=&quot;center&quot;&gt;&lt;br&gt;&lt;/td&gt;&lt;/tr&gt;&lt;tr&gt;&lt;td align=&quot;center&quot;&gt;&lt;font style=&quot;font-size: 15px&quot;&gt;&lt;br&gt;&lt;/font&gt;&lt;/td&gt;&lt;/tr&gt;&lt;/tbody&gt;&lt;/table&gt;" style="text;html=1;strokeColor=none;fillColor=none;overflow=fill;" parent="GZF2rD_12EcgC1dJMO31-1" vertex="1">
          <mxGeometry x="-80" y="-400" width="160" height="140" as="geometry" />
        </mxCell>
        <mxCell id="UWDWhsEttfp944RP2CuH-0" value="Extends" style="endArrow=block;endSize=16;endFill=0;html=1;exitX=0.5;exitY=0;exitDx=0;exitDy=0;" edge="1" parent="GZF2rD_12EcgC1dJMO31-1" source="GZF2rD_12EcgC1dJMO31-4">
          <mxGeometry width="160" relative="1" as="geometry">
            <mxPoint x="-700" y="-680" as="sourcePoint" />
            <mxPoint x="-540" y="-680" as="targetPoint" />
            <Array as="points">
              <mxPoint x="-690" y="-680" />
            </Array>
            <mxPoint as="offset" />
          </mxGeometry>
        </mxCell>
        <mxCell id="wGehaZk7_GvOnPhfeGpg-0" value="Extends" style="endArrow=block;endSize=16;endFill=0;html=1;exitX=0.5;exitY=0;exitDx=0;exitDy=0;entryX=1;entryY=0.579;entryDx=0;entryDy=0;entryPerimeter=0;" edge="1" parent="GZF2rD_12EcgC1dJMO31-1" target="GZF2rD_12EcgC1dJMO31-3">
          <mxGeometry width="160" relative="1" as="geometry">
            <mxPoint x="-230" y="-620" as="sourcePoint" />
            <mxPoint x="-80" y="-680" as="targetPoint" />
            <Array as="points">
              <mxPoint x="-230" y="-680" />
            </Array>
            <mxPoint as="offset" />
          </mxGeometry>
        </mxCell>
        <mxCell id="wGehaZk7_GvOnPhfeGpg-1" value="Extends" style="endArrow=block;endSize=16;endFill=0;html=1;exitX=0.5;exitY=0;exitDx=0;exitDy=0;entryX=0.5;entryY=1;entryDx=0;entryDy=0;" edge="1" parent="GZF2rD_12EcgC1dJMO31-1" source="GZF2rD_12EcgC1dJMO31-8" target="GZF2rD_12EcgC1dJMO31-4">
          <mxGeometry width="160" relative="1" as="geometry">
            <mxPoint x="-790" y="-430" as="sourcePoint" />
            <mxPoint x="-640" y="-490" as="targetPoint" />
            <Array as="points" />
            <mxPoint as="offset" />
          </mxGeometry>
        </mxCell>
        <mxCell id="wGehaZk7_GvOnPhfeGpg-2" value="Extends" style="endArrow=block;endSize=16;endFill=0;html=1;exitX=0.5;exitY=0;exitDx=0;exitDy=0;entryX=0.5;entryY=1;entryDx=0;entryDy=0;" edge="1" parent="GZF2rD_12EcgC1dJMO31-1" source="GZF2rD_12EcgC1dJMO31-7" target="GZF2rD_12EcgC1dJMO31-4">
          <mxGeometry width="160" relative="1" as="geometry">
            <mxPoint x="-610" y="-430" as="sourcePoint" />
            <mxPoint x="-510" y="-480" as="targetPoint" />
            <Array as="points" />
            <mxPoint as="offset" />
          </mxGeometry>
        </mxCell>
        <mxCell id="wGehaZk7_GvOnPhfeGpg-3" value="Extends" style="endArrow=block;endSize=16;endFill=0;html=1;exitX=0.5;exitY=0;exitDx=0;exitDy=0;entryX=0.5;entryY=1;entryDx=0;entryDy=0;" edge="1" parent="GZF2rD_12EcgC1dJMO31-1" source="GZF2rD_12EcgC1dJMO31-9">
          <mxGeometry width="160" relative="1" as="geometry">
            <mxPoint x="-325" y="-390" as="sourcePoint" />
            <mxPoint x="-225" y="-480" as="targetPoint" />
            <Array as="points" />
            <mxPoint as="offset" />
          </mxGeometry>
        </mxCell>
        <mxCell id="FQ4HYyiP-B0LnXIEtVpO-0" value="Smoothie" style="rounded=1;whiteSpace=wrap;html=1;" vertex="1" parent="GZF2rD_12EcgC1dJMO31-1">
          <mxGeometry x="-160" y="-200" width="80" height="40" as="geometry" />
        </mxCell>
        <mxCell id="FQ4HYyiP-B0LnXIEtVpO-1" value="Ade" style="rounded=1;whiteSpace=wrap;html=1;" vertex="1" parent="GZF2rD_12EcgC1dJMO31-1">
          <mxGeometry x="20" y="-200" width="80" height="40" as="geometry" />
        </mxCell>
        <mxCell id="FQ4HYyiP-B0LnXIEtVpO-2" value="Bubble" style="rounded=1;whiteSpace=wrap;html=1;" vertex="1" parent="GZF2rD_12EcgC1dJMO31-1">
          <mxGeometry x="-70" y="-200" width="80" height="40" as="geometry" />
        </mxCell>
        <mxCell id="FQ4HYyiP-B0LnXIEtVpO-3" value="Tea" style="rounded=1;whiteSpace=wrap;html=1;" vertex="1" parent="GZF2rD_12EcgC1dJMO31-1">
          <mxGeometry x="110" y="-200" width="80" height="40" as="geometry" />
        </mxCell>
        <mxCell id="FQ4HYyiP-B0LnXIEtVpO-5" value="Brewed Coffee" style="rounded=1;whiteSpace=wrap;html=1;" vertex="1" parent="GZF2rD_12EcgC1dJMO31-1">
          <mxGeometry x="-310" y="-200" width="80" height="40" as="geometry" />
        </mxCell>
        <mxCell id="FQ4HYyiP-B0LnXIEtVpO-6" value="Dunkin Espresso" style="rounded=1;whiteSpace=wrap;html=1;" vertex="1" parent="GZF2rD_12EcgC1dJMO31-1">
          <mxGeometry x="-400" y="-200" width="80" height="40" as="geometry" />
        </mxCell>
        <mxCell id="FQ4HYyiP-B0LnXIEtVpO-7" value="Hot Sandwiches" style="rounded=1;whiteSpace=wrap;html=1;" vertex="1" parent="GZF2rD_12EcgC1dJMO31-1">
          <mxGeometry x="-680" y="-210" width="80" height="40" as="geometry" />
        </mxCell>
        <mxCell id="FQ4HYyiP-B0LnXIEtVpO-8" value="At Home" style="rounded=1;whiteSpace=wrap;html=1;" vertex="1" parent="GZF2rD_12EcgC1dJMO31-1">
          <mxGeometry x="-590" y="-210" width="80" height="40" as="geometry" />
        </mxCell>
        <mxCell id="FQ4HYyiP-B0LnXIEtVpO-9" value="Basic" style="rounded=1;whiteSpace=wrap;html=1;" vertex="1" parent="GZF2rD_12EcgC1dJMO31-1">
          <mxGeometry x="-880" y="-210" width="80" height="40" as="geometry" />
        </mxCell>
        <mxCell id="FQ4HYyiP-B0LnXIEtVpO-10" value="Bagels" style="rounded=1;whiteSpace=wrap;html=1;" vertex="1" parent="GZF2rD_12EcgC1dJMO31-1">
          <mxGeometry x="-790" y="-210" width="80" height="40" as="geometry" />
        </mxCell>
        <mxCell id="FQ4HYyiP-B0LnXIEtVpO-11" value="Extends" style="endArrow=block;endSize=16;endFill=0;html=1;exitX=0.5;exitY=0;exitDx=0;exitDy=0;entryX=1.006;entryY=0.636;entryDx=0;entryDy=0;entryPerimeter=0;" edge="1" parent="GZF2rD_12EcgC1dJMO31-1" target="GZF2rD_12EcgC1dJMO31-5">
          <mxGeometry width="160" relative="1" as="geometry">
            <mxPoint y="-400" as="sourcePoint" />
            <mxPoint x="100" y="-490" as="targetPoint" />
            <Array as="points">
              <mxPoint y="-531" />
            </Array>
            <mxPoint as="offset" />
          </mxGeometry>
        </mxCell>
        <mxCell id="FQ4HYyiP-B0LnXIEtVpO-15" value="Extends" style="endArrow=block;endSize=16;endFill=0;html=1;exitX=0.5;exitY=0;exitDx=0;exitDy=0;entryX=0.006;entryY=0.636;entryDx=0;entryDy=0;entryPerimeter=0;" edge="1" parent="GZF2rD_12EcgC1dJMO31-1" target="GZF2rD_12EcgC1dJMO31-10">
          <mxGeometry width="160" relative="1" as="geometry">
            <mxPoint x="-120" y="-200" as="sourcePoint" />
            <mxPoint x="-20" y="-290" as="targetPoint" />
            <Array as="points">
              <mxPoint x="-120" y="-260" />
            </Array>
            <mxPoint as="offset" />
          </mxGeometry>
        </mxCell>
        <mxCell id="FQ4HYyiP-B0LnXIEtVpO-17" value="Extends" style="endArrow=block;endSize=16;endFill=0;html=1;exitX=0.5;exitY=0;exitDx=0;exitDy=0;entryX=0.306;entryY=0.993;entryDx=0;entryDy=0;entryPerimeter=0;" edge="1" parent="GZF2rD_12EcgC1dJMO31-1" target="GZF2rD_12EcgC1dJMO31-10">
          <mxGeometry width="160" relative="1" as="geometry">
            <mxPoint x="-30" y="-200" as="sourcePoint" />
            <mxPoint x="70" y="-290" as="targetPoint" />
            <Array as="points" />
            <mxPoint as="offset" />
          </mxGeometry>
        </mxCell>
        <mxCell id="FQ4HYyiP-B0LnXIEtVpO-18" value="Extends" style="endArrow=block;endSize=16;endFill=0;html=1;exitX=0.5;exitY=0;exitDx=0;exitDy=0;entryX=0.306;entryY=0.993;entryDx=0;entryDy=0;entryPerimeter=0;" edge="1" parent="GZF2rD_12EcgC1dJMO31-1">
          <mxGeometry width="160" relative="1" as="geometry">
            <mxPoint x="51.040000000000006" y="-200" as="sourcePoint" />
            <mxPoint x="50.00000000000004" y="-260.98" as="targetPoint" />
            <Array as="points" />
            <mxPoint as="offset" />
          </mxGeometry>
        </mxCell>
        <mxCell id="FQ4HYyiP-B0LnXIEtVpO-19" value="Extends" style="endArrow=block;endSize=16;endFill=0;html=1;exitX=0.5;exitY=0;exitDx=0;exitDy=0;entryX=0.994;entryY=0.629;entryDx=0;entryDy=0;entryPerimeter=0;" edge="1" parent="GZF2rD_12EcgC1dJMO31-1" target="GZF2rD_12EcgC1dJMO31-10">
          <mxGeometry width="160" relative="1" as="geometry">
            <mxPoint x="149.04000000000002" y="-200" as="sourcePoint" />
            <mxPoint x="190.00000000000006" y="-310.96000000000004" as="targetPoint" />
            <Array as="points">
              <mxPoint x="149.04000000000002" y="-260" />
            </Array>
            <mxPoint as="offset" />
          </mxGeometry>
        </mxCell>
        <mxCell id="FQ4HYyiP-B0LnXIEtVpO-20" value="Extends" style="endArrow=block;endSize=16;endFill=0;html=1;exitX=0.5;exitY=0;exitDx=0;exitDy=0;entryX=0.306;entryY=0.993;entryDx=0;entryDy=0;entryPerimeter=0;" edge="1" parent="GZF2rD_12EcgC1dJMO31-1">
          <mxGeometry width="160" relative="1" as="geometry">
            <mxPoint x="-359.48" y="-199.02" as="sourcePoint" />
            <mxPoint x="-360.52" y="-260" as="targetPoint" />
            <Array as="points" />
            <mxPoint as="offset" />
          </mxGeometry>
        </mxCell>
        <mxCell id="FQ4HYyiP-B0LnXIEtVpO-21" value="Extends" style="endArrow=block;endSize=16;endFill=0;html=1;exitX=0.5;exitY=0;exitDx=0;exitDy=0;entryX=0.306;entryY=0.993;entryDx=0;entryDy=0;entryPerimeter=0;" edge="1" parent="GZF2rD_12EcgC1dJMO31-1">
          <mxGeometry width="160" relative="1" as="geometry">
            <mxPoint x="-269.48" y="-199.01999999999998" as="sourcePoint" />
            <mxPoint x="-270.52" y="-260" as="targetPoint" />
            <Array as="points" />
            <mxPoint as="offset" />
          </mxGeometry>
        </mxCell>
        <mxCell id="FQ4HYyiP-B0LnXIEtVpO-22" value="" style="endArrow=block;dashed=1;endFill=0;endSize=12;html=1;" edge="1" parent="GZF2rD_12EcgC1dJMO31-1" target="FQ4HYyiP-B0LnXIEtVpO-23">
          <mxGeometry width="160" relative="1" as="geometry">
            <mxPoint x="-455.5" y="-790" as="sourcePoint" />
            <mxPoint x="-455.5" y="-900" as="targetPoint" />
          </mxGeometry>
        </mxCell>
        <mxCell id="FQ4HYyiP-B0LnXIEtVpO-23" value="«interface»&lt;br&gt;&lt;b&gt;ToGO&lt;/b&gt;" style="html=1;" vertex="1" parent="GZF2rD_12EcgC1dJMO31-1">
          <mxGeometry x="-510.5" y="-925" width="110" height="50" as="geometry" />
        </mxCell>
        <mxCell id="FQ4HYyiP-B0LnXIEtVpO-28" value="«interface»&lt;br&gt;&lt;b&gt;Hot&lt;/b&gt;" style="html=1;" vertex="1" parent="GZF2rD_12EcgC1dJMO31-1">
          <mxGeometry x="-750" y="-60" width="110" height="50" as="geometry" />
        </mxCell>
        <mxCell id="FQ4HYyiP-B0LnXIEtVpO-29" value="" style="endArrow=block;dashed=1;endFill=0;endSize=12;html=1;exitX=0.5;exitY=1;exitDx=0;exitDy=0;" edge="1" parent="GZF2rD_12EcgC1dJMO31-1" source="FQ4HYyiP-B0LnXIEtVpO-10" target="FQ4HYyiP-B0LnXIEtVpO-28">
          <mxGeometry width="160" relative="1" as="geometry">
            <mxPoint x="-760" y="-170" as="sourcePoint" />
            <mxPoint x="-600" y="-170" as="targetPoint" />
          </mxGeometry>
        </mxCell>
        <mxCell id="FQ4HYyiP-B0LnXIEtVpO-30" value="" style="endArrow=block;dashed=1;endFill=0;endSize=12;html=1;exitX=0.5;exitY=1;exitDx=0;exitDy=0;" edge="1" parent="GZF2rD_12EcgC1dJMO31-1" source="FQ4HYyiP-B0LnXIEtVpO-7" target="FQ4HYyiP-B0LnXIEtVpO-28">
          <mxGeometry width="160" relative="1" as="geometry">
            <mxPoint x="-650" y="-170" as="sourcePoint" />
            <mxPoint x="-572.5925925925926" y="-60" as="targetPoint" />
          </mxGeometry>
        </mxCell>
      </root>
    </mxGraphModel>
  </diagram>
</mxfile>
